<svg width="200" height="44" viewBox="0 0 200 44" fill="none" xmlns="http://www.w3.org/2000/svg">
<rect width="28.0125" height="27.6261" rx="5.04532" transform="matrix(-0.757446 -0.652898 0.757445 -0.652898 24.218 40.3263)" fill="url(#paint0_linear_1_462)"/>
<path d="M25.0588 18.3747L27.1866 20.2089H31.4423L33.5702 22.043L31.4423 23.8771L27.6122 20.5757L26.7611 20.5757L21.2287 25.3445V26.0781L25.0588 29.3796L22.9309 31.2137L12.2917 22.043L14.4196 20.2089L20.3775 25.3445L21.6542 24.244L21.6542 21.3093L24.6332 18.7415L24.6332 18.0079L20.8031 14.7064L22.9309 12.8723L25.0588 14.7064V18.3747Z" fill="white"/>
<g filter="url(#filter0_f_1_462)">
<mask id="path-3-outside-1_1_462" maskUnits="userSpaceOnUse" x="10.86" y="11.5853" width="24.2383" height="20.8927" fill="black">
<rect fill="white" x="10.86" y="11.5853" width="24.2383" height="20.8927"/>
<path d="M25.0588 18.3747L27.1866 20.2089H31.4423L33.5702 22.043L31.4423 23.8771L27.6122 20.5757L26.7611 20.5757L21.2287 25.3445V26.0781L25.0588 29.3796L22.9309 31.2137L12.2917 22.043L14.4196 20.2089L20.3775 25.3445L21.6542 24.244L21.6542 21.3093L24.6332 18.7415L24.6332 18.0079L20.8031 14.7064L22.9309 12.8723L25.0588 14.7064V18.3747Z"/>
</mask>
<path d="M25.0588 18.3747L27.1866 20.2089H31.4423L33.5702 22.043L31.4423 23.8771L27.6122 20.5757L26.7611 20.5757L21.2287 25.3445V26.0781L25.0588 29.3796L22.9309 31.2137L12.2917 22.043L14.4196 20.2089L20.3775 25.3445L21.6542 24.244L21.6542 21.3093L24.6332 18.7415L24.6332 18.0079L20.8031 14.7064L22.9309 12.8723L25.0588 14.7064V18.3747Z" fill="white"/>
<path d="M25.0588 18.3747L24.7606 18.3747V18.4812L24.8479 18.5565L25.0588 18.3747ZM27.1866 20.2089L26.9758 20.3906L27.0631 20.4659H27.1866L27.1866 20.2089ZM31.4423 20.2089L31.6532 20.0271L31.5658 19.9518H31.4423L31.4423 20.2089ZM33.5702 22.043L33.781 22.2248L33.9919 22.043L33.781 21.8612L33.5702 22.043ZM31.4423 23.8771L31.2315 24.0589L31.4423 24.2407L31.6532 24.0589L31.4423 23.8771ZM27.6122 20.5757L27.8231 20.3939L27.7357 20.3186H27.6122V20.5757ZM26.7611 20.5757V20.3186L26.6375 20.3186L26.5502 20.3939L26.7611 20.5757ZM21.2287 25.3445L21.0178 25.1627L20.9305 25.238V25.3445L21.2287 25.3445ZM21.2287 26.0781H20.9305L20.9305 26.1846L21.0178 26.2599L21.2287 26.0781ZM25.0588 29.3796L25.2697 29.5613L25.4805 29.3796L25.2697 29.1978L25.0588 29.3796ZM22.9309 31.2137L22.7201 31.3955L22.9309 31.5772L23.1418 31.3955L22.9309 31.2137ZM12.2917 22.043L12.0809 21.8612L11.87 22.043L12.0809 22.2248L12.2917 22.043ZM14.4196 20.2089L14.6304 20.0271L14.4196 19.8453L14.2087 20.0271L14.4196 20.2089ZM20.3775 25.3445L20.1667 25.5262L20.3775 25.708L20.5884 25.5262L20.3775 25.3445ZM21.6542 24.244L21.8651 24.4257L21.9525 24.3504L21.9525 24.244L21.6542 24.244ZM21.6542 21.3093L21.4434 21.1276L21.356 21.2029L21.356 21.3093L21.6542 21.3093ZM24.6332 18.7415L24.8441 18.9233L24.9314 18.848L24.9314 18.7415L24.6332 18.7415ZM24.6332 18.0079H24.9314V17.9014L24.8441 17.8261L24.6332 18.0079ZM20.8031 14.7064L20.5922 14.5247L20.3814 14.7064L20.5922 14.8882L20.8031 14.7064ZM22.9309 12.8723L23.1418 12.6905L22.9309 12.5088L22.7201 12.6905L22.9309 12.8723ZM25.0588 14.7064L25.357 14.7064L25.357 14.5999L25.2697 14.5247L25.0588 14.7064ZM24.8479 18.5565L26.9758 20.3906L27.3975 20.0271L25.2697 18.193L24.8479 18.5565ZM27.1866 20.4659L31.4423 20.4659L31.4423 19.9518H27.1866V20.4659ZM31.2315 20.3906L33.3593 22.2248L33.781 21.8612L31.6532 20.0271L31.2315 20.3906ZM33.3593 21.8612L31.2315 23.6954L31.6532 24.0589L33.781 22.2248L33.3593 21.8612ZM31.6532 23.6954L27.8231 20.3939L27.4013 20.7574L31.2315 24.0589L31.6532 23.6954ZM27.6122 20.3186L26.7611 20.3186V20.8327H27.6122L27.6122 20.3186ZM26.5502 20.3939L21.0178 25.1627L21.4395 25.5262L26.9719 20.7574L26.5502 20.3939ZM20.9305 25.3445L20.9305 26.0781L21.5269 26.0781L21.5269 25.3445L20.9305 25.3445ZM21.0178 26.2599L24.8479 29.5613L25.2697 29.1978L21.4395 25.8964L21.0178 26.2599ZM24.8479 29.1978L22.7201 31.032L23.1418 31.3955L25.2697 29.5613L24.8479 29.1978ZM23.1418 31.032L12.5026 21.8612L12.0809 22.2248L22.7201 31.3955L23.1418 31.032ZM12.5026 22.2248L14.6304 20.3906L14.2087 20.0271L12.0809 21.8612L12.5026 22.2248ZM14.2087 20.3906L20.1667 25.5262L20.5884 25.1627L14.6304 20.0271L14.2087 20.3906ZM20.5884 25.5262L21.8651 24.4257L21.4434 24.0622L20.1667 25.1627L20.5884 25.5262ZM21.9525 24.244V21.3093L21.356 21.3093L21.356 24.244L21.9525 24.244ZM21.8651 21.4911L24.8441 18.9233L24.4224 18.5598L21.4434 21.1276L21.8651 21.4911ZM24.9314 18.7415L24.9314 18.0079L24.335 18.0079L24.335 18.7415L24.9314 18.7415ZM24.8441 17.8261L21.014 14.5247L20.5922 14.8882L24.4224 18.1896L24.8441 17.8261ZM21.014 14.8882L23.1418 13.054L22.7201 12.6905L20.5922 14.5247L21.014 14.8882ZM22.7201 13.054L24.8479 14.8882L25.2697 14.5247L23.1418 12.6905L22.7201 13.054ZM24.7606 14.7064V18.3747L25.357 18.3747L25.357 14.7064L24.7606 14.7064Z" fill="white" mask="url(#path-3-outside-1_1_462)"/>
</g>
<path d="M69.5297 20.1717V24.4478L73.8058 28.7239V33H69.5297V25.303L68.6745 24.4478H57.5567L56.7015 25.303V33H52.4254V11.6195H56.7015V23.5926H59.2671L62.688 20.1717H68.6745L69.5297 19.3165V11.6195H73.8058V15.8956L69.5297 20.1717ZM94.605 15.8956H98.0259V33H93.7498V25.303L92.8946 24.4478H81.7767L80.9215 25.303V33H76.6454V15.8956H80.0663L80.9215 15.0404V11.6195H93.7498V15.0404L94.605 15.8956ZM93.7498 20.1717V15.8956H80.9215V23.5926H83.4872L86.9081 20.1717H93.7498ZM114.549 15.8956L113.694 16.7508V27.8687L114.549 28.7239H122.246V33H113.694V28.7239H109.418V33H100.865V28.7239H108.562L109.418 27.8687V16.7508L108.562 15.8956H100.865V11.6195H109.418V15.8956H113.694V11.6195H122.246V15.8956H114.549ZM129.362 15.8956V22.7374L130.217 23.5926H131.927L135.348 20.1717H142.19L146.466 24.4478V28.7239H143.045L142.19 29.5791V33H125.086V28.7239H142.19V24.4478H129.362L125.086 20.1717V15.8956H128.506L129.362 15.0404V11.6195H146.466V15.8956H129.362ZM170.686 15.8956H153.582V23.5926H156.147L159.568 20.1717H166.41V24.4478H159.568H156.86H155.292H154.437L153.582 25.303V28.7239H153.653H170.686V33H153.582V29.5079L152.798 28.7239H149.306V15.8956H152.726L153.582 15.0404V11.6195H170.686V15.8956ZM194.906 11.6195V28.7239H191.485L190.63 29.5791V33H186.354L182.078 28.7239V15.8956H177.802V33H173.526V15.8956H176.947L177.802 15.0404V11.6195H182.078L186.354 15.8956V28.7239H190.63V11.6195H194.906Z" fill="white"/>
<defs>
<filter id="filter0_f_1_462" x="0.28903" y="0.927671" width="45.284" height="42.2307" filterUnits="userSpaceOnUse" color-interpolation-filters="sRGB">
<feFlood flood-opacity="0" result="BackgroundImageFix"/>
<feBlend mode="normal" in="SourceGraphic" in2="BackgroundImageFix" result="shape"/>
<feGaussianBlur stdDeviation="5.79054" result="effect1_foregroundBlur_1_462"/>
</filter>
<linearGradient id="paint0_linear_1_462" x1="27.8193" y1="-2.05125e-07" x2="0.193186" y2="27.6261" gradientUnits="userSpaceOnUse">
<stop stop-color="#8F59E2"/>
<stop offset="0.5" stop-color="#7321EB"/>
<stop offset="1" stop-color="#7E45D6"/>
</linearGradient>
</defs>
</svg>
