<svg width="52" height="51" viewBox="0 0 52 51" fill="none" xmlns="http://www.w3.org/2000/svg">
<rect width="30.4352" height="30.0154" rx="5.785" transform="matrix(-0.724738 -0.689024 0.724738 -0.689025 26.0576 46.2929)" fill="url(#paint0_linear_1_382)"/>
<path d="M28.1407 21.2642L30.4751 23.4836H35.144L37.4785 25.703L35.144 27.9224L30.942 23.9275L30.0082 23.9275L23.9387 29.6979V30.5857L28.1407 34.5806L25.8062 36.8L14.134 25.703L16.4685 23.4836L23.0049 29.6979L24.4056 28.3663L24.4056 24.8152L27.6738 21.708L27.6738 20.8203L23.4718 16.8253L25.8062 14.6059L28.1407 16.8253V21.2642Z" fill="white"/>
<g filter="url(#filter0_f_1_382)">
<mask id="path-3-outside-1_1_382" maskUnits="userSpaceOnUse" x="12.7075" y="13.424" width="26.0906" height="24.8049" fill="black">
<rect fill="white" x="12.7075" y="13.424" width="26.0906" height="24.8049"/>
<path d="M28.1407 21.2642L30.4751 23.4836H35.144L37.4785 25.703L35.144 27.9224L30.942 23.9275L30.0082 23.9275L23.9387 29.6979V30.5857L28.1407 34.5806L25.8062 36.8L14.134 25.703L16.4685 23.4836L23.0049 29.6979L24.4056 28.3663L24.4056 24.8152L27.6738 21.708L27.6738 20.8203L23.4718 16.8253L25.8062 14.6059L28.1407 16.8253V21.2642Z"/>
</mask>
<path d="M28.1407 21.2642L30.4751 23.4836H35.144L37.4785 25.703L35.144 27.9224L30.942 23.9275L30.0082 23.9275L23.9387 29.6979V30.5857L28.1407 34.5806L25.8062 36.8L14.134 25.703L16.4685 23.4836L23.0049 29.6979L24.4056 28.3663L24.4056 24.8152L27.6738 21.708L27.6738 20.8203L23.4718 16.8253L25.8062 14.6059L28.1407 16.8253V21.2642Z" fill="white"/>
<path d="M28.1407 21.2642H27.8135L27.8135 21.393L27.9093 21.4841L28.1407 21.2642ZM30.4751 23.4836L30.2438 23.7035L30.3396 23.7946L30.4751 23.7946V23.4836ZM35.144 23.4836L35.3754 23.2636L35.2795 23.1725H35.144V23.4836ZM37.4785 25.703L37.7098 25.9229L37.9411 25.703L37.7098 25.483L37.4785 25.703ZM35.144 27.9224L34.9127 28.1423L35.144 28.3623L35.3754 28.1423L35.144 27.9224ZM30.942 23.9275L31.1734 23.7075L31.0775 23.6164H30.942L30.942 23.9275ZM30.0082 23.9275V23.6164L29.8727 23.6164L29.7769 23.7075L30.0082 23.9275ZM23.9387 29.6979L23.7073 29.478L23.6115 29.5691L23.6115 29.6979L23.9387 29.6979ZM23.9387 30.5857L23.6115 30.5857L23.6115 30.7145L23.7073 30.8056L23.9387 30.5857ZM28.1407 34.5806L28.372 34.8006L28.6034 34.5806L28.372 34.3607L28.1407 34.5806ZM25.8062 36.8L25.5749 37.02L25.8062 37.2399L26.0376 37.02L25.8062 36.8ZM14.134 25.703L13.9027 25.483L13.6713 25.703L13.9027 25.9229L14.134 25.703ZM16.4685 23.4836L16.6998 23.2636L16.4685 23.0437L16.2371 23.2636L16.4685 23.4836ZM23.0049 29.6979L22.7736 29.9179L23.0049 30.1378L23.2362 29.9179L23.0049 29.6979ZM24.4056 28.3663L24.6369 28.5862L24.7327 28.4951L24.7327 28.3663L24.4056 28.3663ZM24.4056 24.8152L24.1742 24.5953L24.0784 24.6864V24.8152H24.4056ZM27.6738 21.708L27.9051 21.928L28.001 21.8369L28.001 21.708H27.6738ZM27.6738 20.8203H28.001L28.001 20.6914L27.9051 20.6003L27.6738 20.8203ZM23.4718 16.8253L23.2405 16.6054L23.0091 16.8253L23.2405 17.0453L23.4718 16.8253ZM25.8062 14.6059L26.0376 14.386L25.8062 14.1661L25.5749 14.386L25.8062 14.6059ZM28.1407 16.8253L28.4678 16.8253L28.4678 16.6965L28.372 16.6054L28.1407 16.8253ZM27.9093 21.4841L30.2438 23.7035L30.7065 23.2636L28.372 21.0442L27.9093 21.4841ZM30.4751 23.7946L35.144 23.7946V23.1725H30.4751L30.4751 23.7946ZM34.9127 23.7035L37.2471 25.9229L37.7098 25.483L35.3754 23.2636L34.9127 23.7035ZM37.2471 25.483L34.9127 27.7024L35.3754 28.1423L37.7098 25.9229L37.2471 25.483ZM35.3754 27.7024L31.1734 23.7075L30.7107 24.1474L34.9127 28.1423L35.3754 27.7024ZM30.942 23.6164H30.0082L30.0082 24.2385H30.942L30.942 23.6164ZM29.7769 23.7075L23.7073 29.478L24.17 29.9179L30.2396 24.1474L29.7769 23.7075ZM23.6115 29.6979L23.6115 30.5857L24.2658 30.5857V29.6979H23.6115ZM23.7073 30.8056L27.9093 34.8006L28.372 34.3607L24.17 30.3657L23.7073 30.8056ZM27.9093 34.3607L25.5749 36.5801L26.0376 37.02L28.372 34.8006L27.9093 34.3607ZM26.0376 36.5801L14.3654 25.483L13.9027 25.9229L25.5749 37.02L26.0376 36.5801ZM14.3654 25.9229L16.6998 23.7035L16.2371 23.2636L13.9027 25.483L14.3654 25.9229ZM16.2371 23.7035L22.7736 29.9179L23.2362 29.478L16.6998 23.2636L16.2371 23.7035ZM23.2362 29.9179L24.6369 28.5862L24.1742 28.1463L22.7736 29.478L23.2362 29.9179ZM24.7327 28.3663L24.7327 24.8152H24.0784L24.0784 28.3663H24.7327ZM24.6369 25.0352L27.9051 21.928L27.4425 21.4881L24.1742 24.5953L24.6369 25.0352ZM28.001 21.708L28.001 20.8203L27.3466 20.8203L27.3466 21.708L28.001 21.708ZM27.9051 20.6003L23.7031 16.6054L23.2405 17.0453L27.4425 21.0402L27.9051 20.6003ZM23.7031 17.0453L26.0376 14.8259L25.5749 14.386L23.2405 16.6054L23.7031 17.0453ZM25.5749 14.8259L27.9093 17.0453L28.372 16.6054L26.0376 14.386L25.5749 14.8259ZM27.8135 16.8253L27.8135 21.2642L28.4678 21.2642V16.8253L27.8135 16.8253Z" fill="white" mask="url(#path-3-outside-1_1_382)"/>
</g>
<defs>
<filter id="filter0_f_1_382" x="0.392433" y="0.887093" width="50.8277" height="49.6318" filterUnits="userSpaceOnUse" color-interpolation-filters="sRGB">
<feFlood flood-opacity="0" result="BackgroundImageFix"/>
<feBlend mode="normal" in="SourceGraphic" in2="BackgroundImageFix" result="shape"/>
<feGaussianBlur stdDeviation="6.63948" result="effect1_foregroundBlur_1_382"/>
</filter>
<linearGradient id="paint0_linear_1_382" x1="30.2253" y1="-2.22867e-07" x2="0.209898" y2="30.0154" gradientUnits="userSpaceOnUse">
<stop stop-color="#8F59E2"/>
<stop offset="0.5" stop-color="#7321EB"/>
<stop offset="1" stop-color="#7E45D6"/>
</linearGradient>
</defs>
</svg>
